# xmcd
#
# Track frame offsets:
#	225
#	25080
#	47365
#	62835
#	82062
#	95785
#	108605
#	121907
#	133870
#	151957
#	164635
#	180520
#	199345
#	209085
#	222492
#	232340
#	244862
#	261127
#	271792
#	291317
#	302160
#	313880
#
# Disc length: 4417
#
# Revision: 4
# Processed by: cddbd v1.5.1PL0 Copyright (c) Steve Scherf et al.
# Submitted via: EasyCDDAExtractor 5.0.7
# Normalized: r2:DSETVAR1,TSWAP
#
DISCID=5d113e16
DTITLE=Various Artist - evergreen melodies
DYEAR=1900
DGENRE=
TTITLE0=Louis Armstrong- - 
TTITLE1=Mary Hopkin - 
TTITLE2=Oscar Benton - 
TTITLE3=Jane Birkin - 
TTITLE4=The Broteherhood - 
TTITLE5=Carpenters - 
TTITLE6=Roy Orbison - 
TTITLE7=Creedence - 
TTITLE8=Frankie Miller - 
TTITLE9=John Travolta and Olivia - 
TTITLE10=Roy Orbison - 
TTITLE11=Ray Charles - 
TTITLE12=Brenda Lee - 
TTITLE13=Louis Prima - 
TTITLE14=Surfaris - 
TTITLE15=Meinz - 
TTITLE16=The righteous brothers - 
TTITLE17=Ritchi Valens - 
TTITLE18=Barry and Aillen - Razni izvodjaci
TTITLE19=Bruce Channel - 
TTITLE20=Pat Boone - 
TTITLE21=Trini Lopez - 
EXTD=
EXTT0=
EXTT1=
EXTT2=
EXTT3=
EXTT4=
EXTT5=
EXTT6=
EXTT7=
EXTT8=
EXTT9=
EXTT10=
EXTT11=
EXTT12=
EXTT13=
EXTT14=
EXTT15=
EXTT16=
EXTT17=
EXTT18=
EXTT19=
EXTT20=
EXTT21=
PLAYORDER=
